<svg width="250" height="226" viewBox="0 0 250 226" fill="none" xmlns="http://www.w3.org/2000/svg">
<rect width="250" height="226" fill="white"/>
<path d="M113.744 114.944C114.368 114.944 114.848 115.232 115.184 115.808C115.568 116.384 115.76 117.176 115.76 118.184C115.76 120.104 115.304 121.592 114.392 122.648C112.328 125.192 110.072 127.28 107.624 128.912C105.224 130.544 102.488 131.36 99.416 131.36C95.192 131.36 92.048 129.44 89.984 125.6C87.968 121.76 86.96 116.792 86.96 110.696C86.96 104.84 87.704 98.168 89.192 90.68C90.728 83.192 92.96 76.76 95.888 71.384C98.864 66.008 102.392 63.32 106.472 63.32C108.776 63.32 110.576 64.4 111.872 66.56C113.216 68.672 113.888 71.72 113.888 75.704C113.888 81.416 112.304 88.04 109.136 95.576C105.968 103.112 101.672 110.576 96.248 117.968C96.584 119.936 97.136 121.352 97.904 122.216C98.672 123.032 99.68 123.44 100.928 123.44C102.896 123.44 104.624 122.888 106.112 121.784C107.6 120.632 109.496 118.688 111.8 115.952C112.376 115.28 113.024 114.944 113.744 114.944ZM104.888 70.448C103.784 70.448 102.536 72.44 101.144 76.424C99.752 80.408 98.528 85.352 97.472 91.256C96.416 97.16 95.84 102.824 95.744 108.248C99.152 102.632 101.864 97.016 103.88 91.4C105.896 85.736 106.904 80.576 106.904 75.92C106.904 72.272 106.232 70.448 104.888 70.448ZM146.66 108.896C147.284 108.896 147.764 109.208 148.1 109.832C148.436 110.456 148.604 111.248 148.604 112.208C148.604 114.512 147.908 115.88 146.516 116.312C143.636 117.32 140.468 117.896 137.012 118.04C136.1 122.072 134.3 125.312 131.612 127.76C128.924 130.16 125.876 131.36 122.468 131.36C119.588 131.36 117.116 130.664 115.052 129.272C113.036 127.88 111.5 126.032 110.444 123.728C109.388 121.424 108.86 118.928 108.86 116.24C108.86 112.592 109.556 109.352 110.948 106.52C112.34 103.64 114.26 101.408 116.708 99.824C119.156 98.192 121.868 97.376 124.844 97.376C128.492 97.376 131.42 98.648 133.628 101.192C135.884 103.688 137.204 106.784 137.588 110.48C139.844 110.336 142.532 109.856 145.652 109.04C146.036 108.944 146.372 108.896 146.66 108.896ZM123.044 123.728C124.58 123.728 125.9 123.104 127.004 121.856C128.156 120.608 128.924 118.808 129.308 116.456C127.82 115.448 126.668 114.128 125.852 112.496C125.084 110.864 124.7 109.136 124.7 107.312C124.7 106.544 124.772 105.776 124.916 105.008H124.556C122.636 105.008 121.028 105.944 119.732 107.816C118.484 109.64 117.86 112.232 117.86 115.592C117.86 118.232 118.364 120.248 119.372 121.64C120.428 123.032 121.652 123.728 123.044 123.728ZM166.833 99.824C168.033 99.824 168.873 100.016 169.353 100.4C169.881 100.736 170.145 101.432 170.145 102.488C170.145 103.064 170.121 103.52 170.073 103.856C169.881 105.344 169.281 109.184 168.273 115.376C167.553 119.552 167.097 122.312 166.905 123.656C165.081 136.04 162.609 145.808 159.489 152.96C156.417 160.16 152.289 163.76 147.105 163.76C144.657 163.76 142.665 162.992 141.129 161.456C139.593 159.968 138.825 158 138.825 155.552C138.825 152.144 140.169 148.472 142.857 144.536C145.545 140.648 150.585 135.848 157.977 130.136L158.409 127.328C157.593 128.624 156.513 129.632 155.169 130.352C153.873 131.024 152.577 131.36 151.281 131.36C148.305 131.36 145.929 130.28 144.153 128.12C142.377 125.96 141.489 123.128 141.489 119.624C141.489 115.784 142.377 112.16 144.153 108.752C145.929 105.296 148.281 102.536 151.209 100.472C154.185 98.36 157.329 97.304 160.641 97.304C161.697 97.304 162.393 97.52 162.729 97.952C163.113 98.336 163.425 99.056 163.665 100.112C164.577 99.92 165.633 99.824 166.833 99.824ZM153.873 124.088C154.977 124.088 156.033 123.416 157.041 122.072C158.049 120.728 158.769 118.808 159.201 116.312L161.505 104C159.537 104.048 157.713 104.816 156.033 106.304C154.353 107.744 153.009 109.664 152.001 112.064C150.993 114.464 150.489 117.008 150.489 119.696C150.489 121.184 150.777 122.288 151.353 123.008C151.977 123.728 152.817 124.088 153.873 124.088ZM147.897 156.776C149.097 156.776 150.441 155.336 151.929 152.456C153.465 149.576 154.929 144.992 156.321 138.704C152.625 141.872 149.961 144.728 148.329 147.272C146.697 149.816 145.881 152.048 145.881 153.968C145.881 154.784 146.025 155.456 146.313 155.984C146.649 156.512 147.177 156.776 147.897 156.776Z" fill="#5C719A"/>
</svg>
