<svg width="458" height="248" viewBox="0 0 458 248" fill="none" xmlns="http://www.w3.org/2000/svg">
<rect width="458" height="248" fill="#5C719A"/>
<path d="M215.744 125.944C216.368 125.944 216.848 126.232 217.184 126.808C217.568 127.384 217.76 128.176 217.76 129.184C217.76 131.104 217.304 132.592 216.392 133.648C214.328 136.192 212.072 138.28 209.624 139.912C207.224 141.544 204.488 142.36 201.416 142.36C197.192 142.36 194.048 140.44 191.984 136.6C189.968 132.76 188.96 127.792 188.96 121.696C188.96 115.84 189.704 109.168 191.192 101.68C192.728 94.192 194.96 87.76 197.888 82.384C200.864 77.008 204.392 74.32 208.472 74.32C210.776 74.32 212.576 75.4 213.872 77.56C215.216 79.672 215.888 82.72 215.888 86.704C215.888 92.416 214.304 99.04 211.136 106.576C207.968 114.112 203.672 121.576 198.248 128.968C198.584 130.936 199.136 132.352 199.904 133.216C200.672 134.032 201.68 134.44 202.928 134.44C204.896 134.44 206.624 133.888 208.112 132.784C209.6 131.632 211.496 129.688 213.8 126.952C214.376 126.28 215.024 125.944 215.744 125.944ZM206.888 81.448C205.784 81.448 204.536 83.44 203.144 87.424C201.752 91.408 200.528 96.352 199.472 102.256C198.416 108.16 197.84 113.824 197.744 119.248C201.152 113.632 203.864 108.016 205.88 102.4C207.896 96.736 208.904 91.576 208.904 86.92C208.904 83.272 208.232 81.448 206.888 81.448ZM248.66 119.896C249.284 119.896 249.764 120.208 250.1 120.832C250.436 121.456 250.604 122.248 250.604 123.208C250.604 125.512 249.908 126.88 248.516 127.312C245.636 128.32 242.468 128.896 239.012 129.04C238.1 133.072 236.3 136.312 233.612 138.76C230.924 141.16 227.876 142.36 224.468 142.36C221.588 142.36 219.116 141.664 217.052 140.272C215.036 138.88 213.5 137.032 212.444 134.728C211.388 132.424 210.86 129.928 210.86 127.24C210.86 123.592 211.556 120.352 212.948 117.52C214.34 114.64 216.26 112.408 218.708 110.824C221.156 109.192 223.868 108.376 226.844 108.376C230.492 108.376 233.42 109.648 235.628 112.192C237.884 114.688 239.204 117.784 239.588 121.48C241.844 121.336 244.532 120.856 247.652 120.04C248.036 119.944 248.372 119.896 248.66 119.896ZM225.044 134.728C226.58 134.728 227.9 134.104 229.004 132.856C230.156 131.608 230.924 129.808 231.308 127.456C229.82 126.448 228.668 125.128 227.852 123.496C227.084 121.864 226.7 120.136 226.7 118.312C226.7 117.544 226.772 116.776 226.916 116.008H226.556C224.636 116.008 223.028 116.944 221.732 118.816C220.484 120.64 219.86 123.232 219.86 126.592C219.86 129.232 220.364 131.248 221.372 132.64C222.428 134.032 223.652 134.728 225.044 134.728ZM268.833 110.824C270.033 110.824 270.873 111.016 271.353 111.4C271.881 111.736 272.145 112.432 272.145 113.488C272.145 114.064 272.121 114.52 272.073 114.856C271.881 116.344 271.281 120.184 270.273 126.376C269.553 130.552 269.097 133.312 268.905 134.656C267.081 147.04 264.609 156.808 261.489 163.96C258.417 171.16 254.289 174.76 249.105 174.76C246.657 174.76 244.665 173.992 243.129 172.456C241.593 170.968 240.825 169 240.825 166.552C240.825 163.144 242.169 159.472 244.857 155.536C247.545 151.648 252.585 146.848 259.977 141.136L260.409 138.328C259.593 139.624 258.513 140.632 257.169 141.352C255.873 142.024 254.577 142.36 253.281 142.36C250.305 142.36 247.929 141.28 246.153 139.12C244.377 136.96 243.489 134.128 243.489 130.624C243.489 126.784 244.377 123.16 246.153 119.752C247.929 116.296 250.281 113.536 253.209 111.472C256.185 109.36 259.329 108.304 262.641 108.304C263.697 108.304 264.393 108.52 264.729 108.952C265.113 109.336 265.425 110.056 265.665 111.112C266.577 110.92 267.633 110.824 268.833 110.824ZM255.873 135.088C256.977 135.088 258.033 134.416 259.041 133.072C260.049 131.728 260.769 129.808 261.201 127.312L263.505 115C261.537 115.048 259.713 115.816 258.033 117.304C256.353 118.744 255.009 120.664 254.001 123.064C252.993 125.464 252.489 128.008 252.489 130.696C252.489 132.184 252.777 133.288 253.353 134.008C253.977 134.728 254.817 135.088 255.873 135.088ZM249.897 167.776C251.097 167.776 252.441 166.336 253.929 163.456C255.465 160.576 256.929 155.992 258.321 149.704C254.625 152.872 251.961 155.728 250.329 158.272C248.697 160.816 247.881 163.048 247.881 164.968C247.881 165.784 248.025 166.456 248.313 166.984C248.649 167.512 249.177 167.776 249.897 167.776Z" fill="#F1AE03"/>
</svg>
