<svg xmlns="http://www.w3.org/2000/svg" width="129.63" height="156.519" viewBox="0 0 129.63 156.519">
  <path id="패스_274" data-name="패스 274" d="M230.7,154.768a2.468,2.468,0,0,1,2.244,1.346,6.612,6.612,0,0,1,.9,3.7q0,4.488-2.132,6.956a47.729,47.729,0,0,1-10.547,9.761,22.21,22.21,0,0,1-12.791,3.815q-9.874,0-14.7-8.976-4.712-8.976-4.712-23.225a161.992,161.992,0,0,1,3.478-31.192q3.59-17.5,10.435-30.07,6.956-12.566,16.493-12.566,5.386,0,8.415,5.049,3.142,4.937,3.142,14.249,0,13.352-7.405,30.967a171.5,171.5,0,0,1-20.084,34.894q.785,4.6,2.581,6.62a6.171,6.171,0,0,0,4.712,1.907,13.191,13.191,0,0,0,8.078-2.581,64.6,64.6,0,0,0,8.864-9.088A3.938,3.938,0,0,1,230.7,154.768Zm-13.8-69.34q-2.581,0-5.834,9.313a153.044,153.044,0,0,0-5.722,23.113,167.312,167.312,0,0,0-2.693,26.479,145.342,145.342,0,0,0,12.679-26.255q4.712-13.24,4.712-24.123Q220.039,85.428,216.9,85.428Zm65.095,59.915a2.448,2.448,0,0,1,2.244,1.459,7.76,7.76,0,0,1,.785,3.7q0,5.386-3.254,6.4a51.082,51.082,0,0,1-14.81,2.693,28.307,28.307,0,0,1-8.415,15.147,20.815,20.815,0,0,1-14.249,5.61,20.177,20.177,0,0,1-11.557-3.254,20.817,20.817,0,0,1-7.181-8.639,27.668,27.668,0,0,1-2.468-11.669,33.906,33.906,0,0,1,3.254-15.147,25.09,25.09,0,0,1,8.976-10.435A22.366,22.366,0,0,1,248,127.391a17.23,17.23,0,0,1,13.688,5.947,24.775,24.775,0,0,1,6.171,14.474,68,68,0,0,0,12.566-2.244A6.593,6.593,0,0,1,281.993,145.343Zm-36.8,23.113a7.97,7.97,0,0,0,6.171-2.917q2.693-2.917,3.59-8.415a15.923,15.923,0,0,1-5.386-6.171,18.742,18.742,0,0,1-1.8-8.078,19.444,19.444,0,0,1,.337-3.59h-.561q-4.488,0-7.517,4.376-2.917,4.264-2.917,12.118,0,6.171,2.356,9.425Q241.937,168.456,245.191,168.456Zm68.238-37.25a6.449,6.449,0,0,1,3.927.9q1.234.785,1.234,3.254a15.848,15.848,0,0,1-.112,2.132q-.449,3.478-2.8,17.952-1.683,9.761-2.132,12.9-4.264,28.948-11.557,45.666-7.181,16.83-19.3,16.83a12.6,12.6,0,0,1-9.313-3.59,12.225,12.225,0,0,1-3.59-9.2q0-7.966,6.283-17.167,6.283-9.088,23.562-22.44l.673-4.376a13.287,13.287,0,0,1-5.049,4.712,13.06,13.06,0,0,1-6.059,1.571,13.645,13.645,0,0,1-11.108-5.049q-4.151-5.049-4.151-13.24a36.143,36.143,0,0,1,4.151-16.942,35.047,35.047,0,0,1,11-12.9,24.982,24.982,0,0,1,14.7-4.937q2.468,0,3.254,1.01a7.1,7.1,0,0,1,1.459,3.366A24.157,24.157,0,0,1,313.429,131.206Zm-20.2,37.811q2.581,0,4.937-3.142a20.871,20.871,0,0,0,3.366-8.976l3.59-19.186a13.13,13.13,0,0,0-8.527,3.59,23.6,23.6,0,0,0-6.283,8.976,30.4,30.4,0,0,0-2.356,11.893,8.189,8.189,0,0,0,1.346,5.161A4.932,4.932,0,0,0,293.233,169.017Zm-9.313,50.939q2.8,0,6.283-6.732,3.59-6.732,6.844-21.43-8.639,7.405-12.454,13.352t-3.815,10.435a6.517,6.517,0,0,0,.673,3.142A2.714,2.714,0,0,0,283.92,219.956Z" transform="translate(-188.96 -74.32)" fill="#f1ae03"/>
</svg>
