<svg id="bold" xmlns="http://www.w3.org/2000/svg" width="18.788" height="20.496" viewBox="0 0 18.788 20.496">
  <path id="bold-2" data-name="bold" d="M199.406,146.587a4.715,4.715,0,0,0,1.868.427q5.017,0,5.017-4.47a4.53,4.53,0,0,0-.547-2.4,4.218,4.218,0,0,0-.821-.987,4.37,4.37,0,0,0-.9-.62,3.972,3.972,0,0,0-1.074-.334,9.363,9.363,0,0,0-1.121-.14q-.487-.027-1.261-.027a4.581,4.581,0,0,0-1.348.133q0,.707-.007,2.122t-.007,2.108q0,.107-.013.9t-.007,1.288q.007.494.06,1.114A3.418,3.418,0,0,0,199.406,146.587Zm-.187-9.954a10.908,10.908,0,0,0,3.363-.08,4.373,4.373,0,0,0,1.468-.594,2.641,2.641,0,0,0,.994-1.194,4.7,4.7,0,0,0,.34-1.895,3.327,3.327,0,0,0-.387-1.635,2.835,2.835,0,0,0-1.054-1.094,5.237,5.237,0,0,0-1.441-.58,7.035,7.035,0,0,0-1.655-.187,11.3,11.3,0,0,0-1.735.173q0,.667.053,2.015t.053,2.028q0,.36-.007,1.067t-.007,1.054Q199.205,136.326,199.219,136.633ZM192,148.5l.027-1.254q.2-.053,1.134-.214a6.932,6.932,0,0,0,1.414-.36,2.256,2.256,0,0,0,.167-.36,2.425,2.425,0,0,0,.113-.447q.04-.247.073-.434a3.385,3.385,0,0,0,.04-.5q.007-.314.007-.454V143.6q0-13.1-.294-13.677a.511.511,0,0,0-.294-.193,3.5,3.5,0,0,0-.594-.147q-.354-.06-.661-.093t-.647-.06q-.34-.027-.407-.04l-.053-1.108q1.308-.027,4.537-.153t4.977-.127q.307,0,.914.007t.9.007a9.472,9.472,0,0,1,1.821.173,7.37,7.37,0,0,1,1.715.56,5.7,5.7,0,0,1,1.441.947,4.164,4.164,0,0,1,.987,1.394,4.436,4.436,0,0,1,.374,1.835,3.565,3.565,0,0,1-.22,1.274,3.607,3.607,0,0,1-.52.961,3.945,3.945,0,0,1-.861.767,9.2,9.2,0,0,1-.974.6q-.414.213-1.121.534a7.064,7.064,0,0,1,3.423,1.788,4.41,4.41,0,0,1,1.368,3.309,5.886,5.886,0,0,1-.467,2.4,4.872,4.872,0,0,1-1.248,1.741,7.045,7.045,0,0,1-1.841,1.141,9.3,9.3,0,0,1-2.182.647,14.273,14.273,0,0,1-2.348.187q-.587,0-1.761-.04t-1.761-.04q-1.414,0-4.1.147T192,148.5Z" transform="translate(-192 -128)" fill="#fff"/>
</svg>
