<svg id="link" xmlns="http://www.w3.org/2000/svg" width="20.468" height="20.488" viewBox="0 0 20.468 20.488">
  <path id="패스_263" data-name="패스 263" d="M46.3,13.579l-2.645,2.645a5.437,5.437,0,0,1-.468.418,5.607,5.607,0,0,1-8.55-1.944,1.874,1.874,0,0,1,2.405.2,3.734,3.734,0,0,0,4.255.731,3.687,3.687,0,0,0,1.035-.731l2.645-2.645a3.74,3.74,0,1,0-5.29-5.29L37.654,9A7.488,7.488,0,0,0,35.3,8.757a5.554,5.554,0,0,1,.418-.468l2.645-2.645A5.611,5.611,0,1,1,46.3,13.579Z" transform="translate(-27.474 -4.001)" fill="#fff"/>
  <path id="패스_264" data-name="패스 264" d="M16.212,41.862l-2.645,2.645a5.611,5.611,0,0,1-7.935-7.935l2.645-2.645a5.582,5.582,0,0,1,2.518-1.45,5.608,5.608,0,0,1,3.892.367A5.588,5.588,0,0,1,17.3,35.452a1.873,1.873,0,0,1-2.405-.2,3.733,3.733,0,0,0-4.255-.731,3.683,3.683,0,0,0-1.035.731L6.955,37.894a3.74,3.74,0,1,0,5.29,5.29l2.033-2.033a7.591,7.591,0,0,0,2.352.243A5.428,5.428,0,0,1,16.212,41.862Z" transform="translate(-4 -25.672)" fill="#fff"/>
</svg>
