<svg id="subTitle" xmlns="http://www.w3.org/2000/svg" width="11.321" height="13.588" viewBox="0 0 11.321 13.588">
  <path id="TextOriginal" d="M.716,128.009l.478.239a16.817,16.817,0,0,0,1.866.044q.389,0,1.167-.018t1.167-.018l.951,0,.951,0H9.888l.186,0a1.753,1.753,0,0,0,.181,0,1.094,1.094,0,0,0,.142-.027.337.337,0,0,0,.155-.08,1.078,1.078,0,0,0,.133-.155l.371-.009.124,0,.124,0q.018.991.018,2.972a6.8,6.8,0,0,1-.044.964,3.062,3.062,0,0,1-.6.159,7.071,7.071,0,0,1-.478-1.132q-.027-.08-.1-.425t-.128-.65a2.952,2.952,0,0,0-.066-.314.548.548,0,0,0-.106-.111.3.3,0,0,0-.137-.053,1.15,1.15,0,0,1-.115-.022.723.723,0,0,0-.159,0l-.146,0-.588,0q-.438,0-.659,0t-.566.018q-.345.018-.628.053a9.624,9.624,0,0,0-.071,1.2q0,.831.018,3.432t.018,4.024q0,.141-.022.632a7.327,7.327,0,0,0,0,.809,2.756,2.756,0,0,0,.111.61,5.385,5.385,0,0,0,1.1.376,7.442,7.442,0,0,1,1.061.332q.044.354.044.442a1.307,1.307,0,0,1-.027.256l-.3.009q-.672.018-1.928-.071t-1.831-.088q-.442,0-1.336.08t-1.344.08q-.027-.451-.027-.46v-.08a1.021,1.021,0,0,1,.544-.38,8.371,8.371,0,0,1,.871-.257,2.733,2.733,0,0,0,.69-.239,16.4,16.4,0,0,0,.168-3.388q0-.893-.027-2.68t-.027-2.68v-1.035q0-.018,0-.137t0-.221q0-.1-.009-.226a1.729,1.729,0,0,0-.027-.212.323.323,0,0,0-.044-.124,4.314,4.314,0,0,0-1.433-.106,4.51,4.51,0,0,0-.823.106,2.1,2.1,0,0,0-.708.23,1.166,1.166,0,0,0-.3.641q-.133.526-.279.982t-.376.473a1.978,1.978,0,0,1-.5-.389v-3.388Z" transform="translate(0 -128)" fill="#fff"/>
</svg>
