<svg id="title" xmlns="http://www.w3.org/2000/svg" width="17.069" height="20.487" viewBox="0 0 17.069 20.487">
  <path id="TextOriginal" d="M1.08,128.013l.72.36a25.359,25.359,0,0,0,2.814.067q.587,0,1.76-.027t1.76-.027q.48,0,1.433.007T11,128.4h3.907q.08,0,.28.007a2.647,2.647,0,0,0,.273,0,1.647,1.647,0,0,0,.213-.04.509.509,0,0,0,.233-.12,1.624,1.624,0,0,0,.2-.233l.56-.013q.053,0,.187.007t.187.007q.027,1.493.027,4.48A10.255,10.255,0,0,1,17,133.947a4.618,4.618,0,0,1-.907.24,10.661,10.661,0,0,1-.72-1.707q-.04-.12-.147-.64t-.193-.98a4.451,4.451,0,0,0-.1-.473.826.826,0,0,0-.16-.167.458.458,0,0,0-.207-.08,1.732,1.732,0,0,1-.173-.033,1.09,1.09,0,0,0-.24-.007l-.22.007q-.227,0-.887-.007t-.993-.007q-.333,0-.853.027t-.947.08a14.509,14.509,0,0,0-.107,1.814q0,1.253.027,5.174t.027,6.067q0,.213-.033.953a11.047,11.047,0,0,0,0,1.22,4.155,4.155,0,0,0,.167.92,8.119,8.119,0,0,0,1.654.567,11.224,11.224,0,0,1,1.6.5q.067.533.067.667a1.971,1.971,0,0,1-.04.387l-.453.013q-1.013.027-2.907-.107t-2.76-.133q-.667,0-2.014.12t-2.027.12q-.04-.68-.04-.693v-.12a1.54,1.54,0,0,1,.82-.573,12.629,12.629,0,0,1,1.313-.387,4.119,4.119,0,0,0,1.04-.36,24.719,24.719,0,0,0,.253-5.107q0-1.347-.04-4.04t-.04-4.04V131.6q0-.027.007-.207t.007-.333q0-.153-.013-.34a2.607,2.607,0,0,0-.04-.32.487.487,0,0,0-.067-.187,6.5,6.5,0,0,0-2.16-.16,6.8,6.8,0,0,0-1.24.16,3.17,3.17,0,0,0-1.067.347,1.757,1.757,0,0,0-.453.967q-.2.793-.42,1.48t-.567.713A2.981,2.981,0,0,1,0,133.134v-5.107Z" transform="translate(0 -128)" fill="#fff"/>
</svg>
