<svg xmlns="http://www.w3.org/2000/svg" width="140" height="182.696" viewBox="0 0 140 182.696">
  <g id="anonymous" transform="translate(-42.528 -25)">
    <path id="패스_255" data-name="패스 255" d="M163.033,171.322l-36.684-16.233a4.229,4.229,0,0,0-3.423,7.734l36.684,16.233a4.229,4.229,0,1,0,3.423-7.734Z" transform="translate(16.976 28.277)" fill="#125ce8"/>
    <path id="패스_256" data-name="패스 256" d="M156.594,150.528a85.573,85.573,0,0,0,7.986-14.919,17.117,17.117,0,0,0,15.005-12.583l2.328-8.493a17.2,17.2,0,0,0-9.5-20.238,90.841,90.841,0,0,0-4.6-29,63.092,63.092,0,0,0-12.792-22.076,54.38,54.38,0,0,0-19.171-13.627,61.506,61.506,0,0,0-46.637,0A54.374,54.374,0,0,0,70.033,43.218a63.079,63.079,0,0,0-12.8,22.075,90.77,90.77,0,0,0-4.6,29.007,17.205,17.205,0,0,0-9.487,20.226l2.312,8.494a17.145,17.145,0,0,0,12.309,12.124,16.9,16.9,0,0,0,2.712.463,85.49,85.49,0,0,0,7.986,14.919,69.957,69.957,0,0,0,10.75,12.565v21.388L45.047,199.6a4.229,4.229,0,1,0,3.423,7.734L85.153,191.1a4.228,4.228,0,0,0,2.518-3.867V161.184a4.227,4.227,0,0,0-1.48-3.213,60.462,60.462,0,0,1-10.718-12.177,78.307,78.307,0,0,1-8.182-15.931,4.22,4.22,0,0,0-4.4-2.7,8.6,8.6,0,0,1-3.035-.217,8.69,8.69,0,0,1-6.238-6.154L51.3,112.3a8.763,8.763,0,0,1,3-9.19,8.523,8.523,0,0,1,2.922-1.518l.185-.044.1-.026.326-.077A4.229,4.229,0,0,0,61.1,97.326l-.017-2.306A82.845,82.845,0,0,1,65.23,68.044,54.7,54.7,0,0,1,76.294,48.9,45.968,45.968,0,0,1,92.507,37.375a53.064,53.064,0,0,1,40.036,0A46.011,46.011,0,0,1,148.755,48.9a54.735,54.735,0,0,1,11.057,19.145,82.891,82.891,0,0,1,4.141,26.976l-.017,2.306a4.168,4.168,0,0,0,3.519,4.169l.214.052a8.622,8.622,0,0,1,3.075,1.558,8.765,8.765,0,0,1,3.008,9.191l-2.331,8.5a8.668,8.668,0,0,1-6.23,6.148,8.552,8.552,0,0,1-3.024.217,4.229,4.229,0,0,0-4.4,2.7,78.432,78.432,0,0,1-8.182,15.931,60.533,60.533,0,0,1-10.718,12.177,45.107,45.107,0,0,1-12.539,7.711,37.056,37.056,0,0,1-13.8,2.692,4.229,4.229,0,1,0,0,8.458,45.48,45.48,0,0,0,16.935-3.295,53.509,53.509,0,0,0,14.9-9.14A68.68,68.68,0,0,0,156.594,150.528Z" transform="translate(0 0)" fill="#125ce8"/>
  </g>
</svg>
