<svg xmlns="http://www.w3.org/2000/svg" width="83" height="83" viewBox="0 0 83 83">
  <g id="그룹_21" data-name="그룹 21" transform="translate(-469 -645)">
    <circle id="타원_9" data-name="타원 9" cx="41.5" cy="41.5" r="41.5" transform="translate(469 645)" fill="#f1ae03"/>
    <path id="plus" d="M48.455,19.382H32.3V3.23A3.24,3.24,0,0,0,29.073,0H22.612a3.24,3.24,0,0,0-3.23,3.23V19.382H3.23A3.24,3.24,0,0,0,0,22.612v6.461A3.24,3.24,0,0,0,3.23,32.3H19.382V48.455a3.24,3.24,0,0,0,3.23,3.23h6.461a3.24,3.24,0,0,0,3.23-3.23V32.3H48.455a3.24,3.24,0,0,0,3.23-3.23V22.612A3.24,3.24,0,0,0,48.455,19.382Z" transform="translate(484.81 660.77)" fill="#fff"/>
  </g>
</svg>
