<svg id="code" xmlns="http://www.w3.org/2000/svg" width="18.694" height="14.169" viewBox="0 0 18.694 14.169">
  <path id="패스_260" data-name="패스 260" d="M-188.749-35.393l4.113-4.112a1.053,1.053,0,0,0,0-1.488,1.052,1.052,0,0,0-1.488,0l-4.841,4.841a1.046,1.046,0,0,0-.308.759,1.045,1.045,0,0,0,.308.758l4.841,4.841a1.053,1.053,0,0,0,1.488,0,1.052,1.052,0,0,0,0-1.488l-4.113-4.109Z" transform="translate(191.273 42.694)"/>
  <path id="패스_261" data-name="패스 261" d="M-165.439-36.5l-4.841-4.841a1.053,1.053,0,0,0-1.489,0,1.05,1.05,0,0,0,0,1.487l4.112,4.112-4.112,4.113a1.051,1.051,0,0,0,0,1.488,1.053,1.053,0,0,0,1.489,0l4.841-4.841a1.049,1.049,0,0,0,.308-.759A1.064,1.064,0,0,0-165.439-36.5Z" transform="translate(183.824 42.83)"/>
  <path id="패스_262" data-name="패스 262" d="M-177.205-30.369a1.147,1.147,0,0,1-1.318.947h0a1.148,1.148,0,0,1-.945-1.318l1.951-11.874a1.147,1.147,0,0,1,1.318-.945h0a1.147,1.147,0,0,1,.945,1.318Z" transform="translate(186.699 43.576)"/>
</svg>
