<svg xmlns="http://www.w3.org/2000/svg" width="17.916" height="24.431" viewBox="0 0 17.916 24.431">
  <g id="layer1" transform="translate(-1.323 -288.798)">
    <path id="rect845" d="M3.766,288.8a2.456,2.456,0,0,0-2.443,2.443v19.544a2.456,2.456,0,0,0,2.443,2.443H16.8a2.456,2.456,0,0,0,2.443-2.443V291.241A2.456,2.456,0,0,0,16.8,288.8Zm0,1.629H16.8a.8.8,0,0,1,.814.814v19.544a.8.8,0,0,1-.814.814H3.766a.8.8,0,0,1-.814-.814V291.241A.8.8,0,0,1,3.766,290.427Z" transform="translate(0 0)"/>
    <path id="path856" d="M5.6,295.963a.814.814,0,1,1-.814-.814.814.814,0,0,1,.814.814Z" transform="translate(5.498 13.196)"/>
    <path id="path858" d="M4.255,289.856a.815.815,0,1,0,0,1.629H7.507a.815.815,0,1,0,0-1.629Z" transform="translate(4.4 2.197)"/>
  </g>
</svg>
