<svg id="photo" xmlns="http://www.w3.org/2000/svg" width="23.586" height="19.9" viewBox="0 0 23.586 19.9">
  <path id="패스_257" data-name="패스 257" d="M13.9,10a5.9,5.9,0,1,0,5.9,5.9A5.9,5.9,0,0,0,13.9,10Zm3.357,8.775a4.422,4.422,0,1,1-.479-6.235A4.421,4.421,0,0,1,17.254,18.776Z" transform="translate(-2.104 -4.841)" fill="#333" fill-rule="evenodd"/>
  <path id="패스_258" data-name="패스 258" d="M14.948,14A2.949,2.949,0,0,0,12,16.948h0a.369.369,0,0,0,.737,0h0a2.211,2.211,0,0,1,2.211-2.21.369.369,0,1,0,0-.737Z" transform="translate(-3.155 -5.893)" fill="#333" fill-rule="evenodd"/>
  <path id="패스_259" data-name="패스 259" d="M21.737,7.453,18.543,6.92,17.531,4.389A2.2,2.2,0,0,0,15.478,3H8.108A2.2,2.2,0,0,0,6.054,4.39L5.043,6.92l-3.194.533A2.2,2.2,0,0,0,0,9.633V20.689A2.214,2.214,0,0,0,2.211,22.9H21.374a2.214,2.214,0,0,0,2.211-2.211V9.633A2.2,2.2,0,0,0,21.737,7.453Zm.374,13.236a.736.736,0,0,1-.737.737H2.211a.736.736,0,0,1-.737-.737V9.633a.737.737,0,0,1,.616-.727L6.1,8.238l1.32-3.3a.739.739,0,0,1,.685-.464h7.371a.738.738,0,0,1,.684.464l1.32,3.3,4.013.669a.737.737,0,0,1,.616.727Z" transform="translate(0 -3)" fill="#333" fill-rule="evenodd"/>
</svg>
