<svg id="video" xmlns="http://www.w3.org/2000/svg" width="19.583" height="13.463" viewBox="0 0 19.583 13.463">
  <path id="video-2" data-name="video" d="M18.359,5.612h-.543a1.225,1.225,0,0,0-.859.352L15.3,7.6V6.836A1.836,1.836,0,0,0,13.463,5H1.836A1.838,1.838,0,0,0,0,6.836v9.791a1.836,1.836,0,0,0,1.836,1.836H13.463A1.837,1.837,0,0,0,15.3,16.627V15.88l1.658,1.635a1.225,1.225,0,0,0,.859.352h.543a1.224,1.224,0,0,0,1.224-1.224V6.836A1.224,1.224,0,0,0,18.359,5.612ZM1.836,17.239a.613.613,0,0,1-.612-.612V6.836a.611.611,0,0,1,.612-.612H13.463a.613.613,0,0,1,.612.612v9.791a.613.613,0,0,1-.612.612Zm16.523-.6h-.612L15.3,14.2v-.017l-.612-.612V9.9l3.06-3.06h.612Z" transform="translate(0 -5)" fill="#333"/>
</svg>
